<mxfile host="app.diagrams.net" modified="2021-03-26T07:58:06.633Z" agent="5.0 (Macintosh; Intel Mac OS X 10_15_6) AppleWebKit/605.1.15 (KHTML, like Gecko) Version/14.0.3 Safari/605.1.15" etag="Pt87KOUVvjN9tkfJRmPA" version="14.5.1" type="github">
  <diagram id="Xs0s2cJdBJTA1fYSCisF" name="Page-1">
    <mxGraphModel dx="1048" dy="675" grid="1" gridSize="10" guides="1" tooltips="1" connect="1" arrows="1" fold="1" page="1" pageScale="1" pageWidth="827" pageHeight="1169" math="0" shadow="0">
      <root>
        <mxCell id="0" />
        <mxCell id="1" parent="0" />
        <mxCell id="jp0BgPLnQmQ9xIHrgFeW-1" value="" style="rounded=0;whiteSpace=wrap;html=1;" vertex="1" parent="1">
          <mxGeometry x="40" y="40" width="720" height="50" as="geometry" />
        </mxCell>
        <mxCell id="jp0BgPLnQmQ9xIHrgFeW-2" value="Header &amp;nbsp;row 1 - column 12" style="text;html=1;strokeColor=none;fillColor=none;align=center;verticalAlign=middle;whiteSpace=wrap;rounded=0;" vertex="1" parent="1">
          <mxGeometry x="160" y="55" width="530" height="25" as="geometry" />
        </mxCell>
        <mxCell id="jp0BgPLnQmQ9xIHrgFeW-3" value="" style="rounded=0;whiteSpace=wrap;html=1;" vertex="1" parent="1">
          <mxGeometry x="40" y="160" width="720" height="230" as="geometry" />
        </mxCell>
        <mxCell id="jp0BgPLnQmQ9xIHrgFeW-4" value="" style="rounded=0;whiteSpace=wrap;html=1;" vertex="1" parent="1">
          <mxGeometry x="40" y="110" width="210" height="40" as="geometry" />
        </mxCell>
        <mxCell id="jp0BgPLnQmQ9xIHrgFeW-5" value="" style="rounded=0;whiteSpace=wrap;html=1;" vertex="1" parent="1">
          <mxGeometry x="320" y="110" width="199" height="40" as="geometry" />
        </mxCell>
      </root>
    </mxGraphModel>
  </diagram>
</mxfile>
